# xmcd
#
# Track frame offsets:
#	150
#	15975
#	25275
#	38775
#	49949
#	70349
#	78599
#	97124
#	116999
#	132974
#	146136
#	160014
#	178909
#	198090
#	215152
#	228989
#	244926
#	267120
#	282322
#	299791
#	322843
#
# Disc length: 4348 seconds
#
# Revision: 1
# Processed by: cddbd v1.5.2PL0 Copyright (c) Steve Scherf et al.
# Submitted via: audiograbber 1.83.01
#
DISCID=4310fa15
DTITLE=Frank Kraaijeveld - Oertrax
DYEAR=2013
DGENRE=Lokaal
TTITLE0=Frank Kraaijeveld - I wanna be your cigarette
TTITLE1=Frank Kraaijeveld - Beat it
TTITLE2=Frank Kraaijeveld - Murder
TTITLE3=Frank Kraaijeveld - Rock the socks out of your shoes
TTITLE4=Frank Kraaijeveld - I know, i know
TTITLE5=Frank Kraaijeveld - Pain, pain, pain
TTITLE6=Frank Kraaijeveld - Short, sad stories
TTITLE7=Frank Kraaijeveld - Rosemary Nymphet
TTITLE8=Frank Kraaijeveld - It's all in my room
TTITLE9=Frank Kraaijeveld - It's a nightmare
TTITLE10=Frank Kraaijeveld - Vitamin Vivi
TTITLE11=Frank Kraaijeveld - Star in his own movie
TTITLE12=Frank Kraaijeveld - Old cats, young rats
TTITLE13=Frank Kraaijeveld - That's how time is
TTITLE14=Frank Kraaijeveld - Can't do nothing
TTITLE15=Frank Kraaijeveld - Shilly shally
TTITLE16=Frank Kraaijeveld - Secrets and lies
TTITLE17=Frank Kraaijeveld - Life is ...
TTITLE18=Frank Kraaijeveld - Namedropper
TTITLE19=Frank Kraaijeveld - Heaven is nowhere
TTITLE20=Frank Kraaijeveld - Stars
EXTD=
EXTT0=
EXTT1=
EXTT2=
EXTT3=
EXTT4=
EXTT5=
EXTT6=
EXTT7=
EXTT8=
EXTT9=
EXTT10=
EXTT11=
EXTT12=
EXTT13=
EXTT14=
EXTT15=
EXTT16=
EXTT17=
EXTT18=
EXTT19=
EXTT20=
PLAYORDER=
